<?xml version="1.0" encoding="utf-8"?>
<!-- Generator: Adobe Illustrator 18.0.0, SVG Export Plug-In . SVG Version: 6.00 Build 0)  -->
<!DOCTYPE svg PUBLIC "-//W3C//DTD SVG 1.1//EN" "http://www.w3.org/Graphics/SVG/1.1/DTD/svg11.dtd">
<svg version="1.1" id="Layer_1" xmlns="http://www.w3.org/2000/svg" xmlns:xlink="http://www.w3.org/1999/xlink" x="0px" y="0px"
	 viewBox="0 0 340 121.2" enable-background="new 0 0 340 121.2" xml:space="preserve">
<g>
	<path fill="#FFFFFF" d="M22.7,84c-5.1-1.5-8.7-3.7-10.8-6.8c-2.1-3.1-3.1-6.9-3.1-11.4v-8.1c0-3-0.7-5.3-2-6.9
		c-1.3-1.6-3.4-2.4-6.3-2.4v-5.6c2.9,0,5-0.8,6.3-2.4c1.3-1.6,2-3.9,2-6.9v-8.1c0-4.5,1-8.3,3.1-11.4C14,11,17.6,8.7,22.7,7.3
		l1.5,4.4c-3,1-5.1,2.6-6.3,4.9c-1.2,2.3-1.8,5.3-1.8,8.8v8.1c0,2.8-0.5,5.2-1.6,7.3c-1.1,2.1-2.7,3.7-5,4.8c2.3,1.2,3.9,2.8,5,4.9
		c1.1,2.1,1.6,4.5,1.6,7.2v8.1c0,3.5,0.6,6.4,1.8,8.8c1.2,2.3,3.3,4,6.3,4.9L22.7,84z"/>
	<path fill="#FFFFFF" d="M71.2,63.8h27.1v5.8H64V12.8h7.2V63.8z"/>
	<path fill="#FFFFFF" d="M241.7,46.8v22.9h-7.2V12.8h21.4c6.2,0,10.9,1.5,14.2,4.6c3.3,3.1,4.9,7.2,4.9,12.4c0,5.3-1.6,9.4-4.9,12.4
		c-3.3,3-8,4.6-14.2,4.6H241.7z M241.7,40.9h14.2c4.1,0,7.1-1,9-3.1c1.9-2.1,2.9-4.7,2.9-8c0-3.3-1-6-2.9-8.1
		c-1.9-2.1-4.9-3.1-9-3.1h-14.2V40.9z"/>
	<path fill="#FFFFFF" d="M310.9,79.6c3-1,5.1-2.6,6.3-4.9c1.3-2.3,1.9-5.3,1.9-8.8v-8.1c0-2.9,0.6-5.3,1.7-7.3s2.9-3.6,5.4-4.7
		c-2.5-1.1-4.3-2.7-5.4-4.7c-1.1-2.1-1.7-4.5-1.7-7.4v-8.1c0-3.5-0.6-6.5-1.9-8.8c-1.2-2.3-3.3-4-6.3-4.9l1.5-4.4
		c5.1,1.5,8.7,3.7,10.8,6.8c2.1,3,3.1,6.8,3.1,11.4v8.1c0,3,0.7,5.3,2,6.9c1.3,1.6,3.4,2.4,6.3,2.4v5.6c-2.9,0-5,0.8-6.3,2.4
		c-1.3,1.6-2,3.9-2,6.9v8.1c0,4.5-1,8.3-3.1,11.4c-2.1,3.1-5.7,5.3-10.8,6.8L310.9,79.6z"/>
</g>
<g>
	<path fill="#FFFFFF" d="M28.5,114.3h-1.4V107h-3.9v7.3h-1.5v-8.5h6.8V114.3z"/>
	<path fill="#FFFFFF" d="M37.8,105.8v8.5h-1.5V107h-2.9l-0.1,2.4c-0.1,1.7-0.3,3-0.7,3.7c-0.4,0.7-1.1,1.1-2.2,1.1h-0.4l0-1.3l0.3,0
		c0.5,0,0.9-0.3,1.1-0.8c0.2-0.5,0.3-1.4,0.4-2.8l0.2-3.6H37.8z"/>
	<path fill="#FFFFFF" d="M45.3,114.3c-0.1-0.3-0.1-0.5-0.1-0.7c0-0.2,0-0.4-0.1-0.5c-0.3,0.4-0.7,0.7-1.1,1
		c-0.4,0.3-0.9,0.4-1.5,0.4c-0.9,0-1.6-0.2-2-0.7c-0.5-0.4-0.7-1.1-0.7-1.9c0-0.8,0.3-1.5,1-1.9c0.6-0.4,1.5-0.7,2.7-0.7h1.6v-0.9
		c0-0.5-0.2-0.9-0.5-1.2c-0.3-0.3-0.8-0.4-1.4-0.4c-0.5,0-1,0.1-1.3,0.4s-0.5,0.6-0.5,0.9h-1.4c0-0.7,0.3-1.2,0.9-1.7
		c0.6-0.5,1.4-0.8,2.4-0.8c1,0,1.8,0.2,2.3,0.7c0.6,0.5,0.9,1.2,0.9,2.1v4.1c0,0.3,0,0.6,0,0.9s0.1,0.6,0.2,0.8H45.3z M42.8,113.2
		c0.5,0,1-0.1,1.5-0.4s0.7-0.6,0.9-0.9v-1.6h-1.7c-0.7,0-1.2,0.2-1.6,0.5c-0.4,0.3-0.6,0.7-0.6,1.1c0,0.4,0.1,0.7,0.4,0.9
		S42.3,113.2,42.8,113.2z"/>
	<path fill="#FFFFFF" d="M55,107h-2.8v7.3h-1.4V107H48v-1.2H55V107z"/>
	<path fill="#FFFFFF" d="M55.5,110.2c0-1.4,0.3-2.5,0.8-3.3c0.5-0.8,1.3-1.2,2.3-1.2c0.2,0,0.4,0,0.6,0.1c0.2,0,0.4,0.1,0.5,0.2
		v-3.8h1.4v3.9c0.2-0.1,0.4-0.2,0.6-0.2c0.2,0,0.4-0.1,0.7-0.1c1,0,1.8,0.4,2.3,1.2s0.8,1.9,0.8,3.3v0.2c0,1.3-0.3,2.2-0.8,3
		s-1.3,1.1-2.3,1.1c-0.3,0-0.5,0-0.7-0.1s-0.4-0.1-0.6-0.2v3.3h-1.4v-3.3c-0.2,0.1-0.4,0.1-0.5,0.2c-0.2,0-0.4,0.1-0.6,0.1
		c-1,0-1.7-0.4-2.3-1.1s-0.8-1.7-0.8-3V110.2z M56.9,110.4c0,0.9,0.2,1.6,0.5,2.1s0.8,0.8,1.5,0.8c0.2,0,0.3,0,0.4,0
		s0.3-0.1,0.4-0.1V107c-0.1,0-0.2-0.1-0.4-0.1c-0.1,0-0.3,0-0.4,0c-0.7,0-1.2,0.3-1.5,0.9c-0.3,0.6-0.5,1.4-0.5,2.4V110.4z
		 M64.1,110.2c0-1-0.2-1.8-0.5-2.4c-0.3-0.6-0.9-0.9-1.6-0.9c-0.2,0-0.3,0-0.5,0s-0.3,0.1-0.4,0.1v6.1c0.1,0,0.2,0.1,0.4,0.1
		c0.1,0,0.3,0,0.5,0c0.7,0,1.2-0.3,1.5-0.8s0.5-1.2,0.5-2.1V110.2z"/>
	<path fill="#FFFFFF" d="M67.1,110c0-1.3,0.3-2.3,1-3.1c0.7-0.8,1.6-1.2,2.8-1.2c1.2,0,2.1,0.4,2.8,1.2c0.7,0.8,1,1.8,1,3.1v0.2
		c0,1.3-0.3,2.3-1,3.1c-0.7,0.8-1.6,1.2-2.8,1.2c-1.2,0-2.1-0.4-2.8-1.2c-0.7-0.8-1-1.8-1-3.1V110z M68.5,110.2
		c0,0.9,0.2,1.7,0.6,2.3c0.4,0.6,1,0.9,1.8,0.9c0.8,0,1.4-0.3,1.7-0.9s0.6-1.3,0.6-2.2V110c0-0.9-0.2-1.7-0.6-2.2
		c-0.4-0.6-1-0.9-1.8-0.9c-0.8,0-1.3,0.3-1.7,0.9c-0.4,0.6-0.6,1.3-0.6,2.2V110.2z"/>
	<path fill="#FFFFFF" d="M83.6,110.4c0,1.3-0.3,2.2-0.9,3s-1.4,1.1-2.4,1.1c-0.5,0-1-0.1-1.4-0.3s-0.7-0.4-1-0.8l0,0v4.1h-1.5v-11.7
		h1.2l0.1,1.1c0.3-0.4,0.6-0.7,1-0.9c0.4-0.2,0.9-0.3,1.4-0.3c1.1,0,1.9,0.4,2.4,1.2s0.9,1.9,0.9,3.3V110.4z M82.2,110.2
		c0-1-0.2-1.8-0.6-2.4s-0.9-0.9-1.7-0.9c-0.5,0-0.9,0.1-1.2,0.3s-0.6,0.5-0.8,0.9v4.1c0.2,0.4,0.5,0.7,0.8,0.9
		c0.3,0.2,0.7,0.3,1.2,0.3c0.8,0,1.3-0.3,1.7-0.8c0.4-0.5,0.6-1.2,0.6-2.1V110.2z"/>
	<path fill="#FFFFFF" d="M90.4,112.4l2.9-6.6h1.8v8.5h-1.4v-6.1h0l-2.7,6.1h-1l-2.8-6.2h0v6.2h-1.4v-8.5h1.9L90.4,112.4z"/>
	<path fill="#FFFFFF" d="M102.6,114.3c-0.1-0.3-0.1-0.5-0.1-0.7c0-0.2,0-0.4-0.1-0.5c-0.3,0.4-0.7,0.7-1.1,1
		c-0.4,0.3-0.9,0.4-1.5,0.4c-0.9,0-1.6-0.2-2-0.7c-0.5-0.4-0.7-1.1-0.7-1.9c0-0.8,0.3-1.5,1-1.9c0.6-0.4,1.5-0.7,2.7-0.7h1.6v-0.9
		c0-0.5-0.2-0.9-0.5-1.2c-0.3-0.3-0.8-0.4-1.4-0.4c-0.5,0-1,0.1-1.3,0.4s-0.5,0.6-0.5,0.9h-1.4c0-0.7,0.3-1.2,0.9-1.7
		c0.6-0.5,1.4-0.8,2.4-0.8c1,0,1.8,0.2,2.3,0.7c0.6,0.5,0.9,1.2,0.9,2.1v4.1c0,0.3,0,0.6,0,0.9s0.1,0.6,0.2,0.8H102.6z M100.1,113.2
		c0.5,0,1-0.1,1.5-0.4s0.7-0.6,0.9-0.9v-1.6h-1.7c-0.7,0-1.2,0.2-1.6,0.5c-0.4,0.3-0.6,0.7-0.6,1.1c0,0.4,0.1,0.7,0.4,0.9
		S99.6,113.2,100.1,113.2z"/>
	<path fill="#FFFFFF" d="M110,113.1c0.4-0.5,0.8-1,1-1.6c0.2-0.5,0.4-1.4,0.5-2.5l0.1-3.2h5.4v7.3h1.1v3.6h-1.4v-2.5h-5.9v2.5h-1.4
		l0-3.6H110z M113,109c-0.1,1-0.2,1.8-0.4,2.4c-0.2,0.7-0.5,1.2-0.8,1.7h3.9v-6H113L113,109z"/>
	<path fill="#FFFFFF" d="M126.7,105.8v8.5h-1.5V107h-2.9l-0.1,2.4c-0.1,1.7-0.3,3-0.7,3.7c-0.4,0.7-1.1,1.1-2.2,1.1H119l0-1.3l0.3,0
		c0.5,0,0.9-0.3,1.1-0.8c0.2-0.5,0.3-1.4,0.4-2.8l0.2-3.6H126.7z"/>
	<path fill="#FFFFFF" d="M135.5,105.8v8.5H134V111h-2.2l-2,3.3h-1.6l2.1-3.5c-0.6-0.2-1-0.5-1.3-0.9c-0.3-0.4-0.4-0.9-0.4-1.5
		c0-0.8,0.3-1.4,0.8-1.9c0.6-0.5,1.4-0.7,2.4-0.7H135.5z M130.2,108.4c0,0.4,0.1,0.7,0.4,1s0.7,0.4,1.2,0.4h2.3V107H132
		c-0.6,0-1,0.1-1.3,0.4S130.2,108,130.2,108.4z"/>
	<path fill="#FFFFFF" d="M145.2,113.3c0.5,0,1-0.2,1.4-0.5c0.4-0.3,0.6-0.7,0.6-1.2h1.4c0,0.8-0.3,1.4-1,2s-1.5,0.8-2.4,0.8
		c-1.2,0-2.2-0.4-2.8-1.2c-0.6-0.8-1-1.8-1-3v-0.3c0-1.2,0.3-2.2,1-3c0.6-0.8,1.6-1.2,2.8-1.2c1,0,1.8,0.3,2.4,0.9
		c0.6,0.6,0.9,1.3,0.9,2.2h-1.4c0-0.5-0.2-1-0.6-1.4c-0.4-0.4-0.8-0.5-1.4-0.5c-0.8,0-1.4,0.3-1.8,0.9s-0.5,1.3-0.5,2.2v0.3
		c0,0.9,0.2,1.6,0.5,2.2C143.8,113,144.3,113.3,145.2,113.3z"/>
	<path fill="#FFFFFF" d="M149.9,110c0-1.3,0.3-2.3,1-3.1c0.7-0.8,1.6-1.2,2.8-1.2c1.2,0,2.1,0.4,2.8,1.2c0.7,0.8,1,1.8,1,3.1v0.2
		c0,1.3-0.3,2.3-1,3.1c-0.7,0.8-1.6,1.2-2.8,1.2c-1.2,0-2.1-0.4-2.8-1.2c-0.7-0.8-1-1.8-1-3.1V110z M151.3,110.2
		c0,0.9,0.2,1.7,0.6,2.3c0.4,0.6,1,0.9,1.8,0.9c0.8,0,1.4-0.3,1.7-0.9s0.6-1.3,0.6-2.2V110c0-0.9-0.2-1.7-0.6-2.2
		c-0.4-0.6-1-0.9-1.8-0.9c-0.8,0-1.3,0.3-1.7,0.9c-0.4,0.6-0.6,1.3-0.6,2.2V110.2z"/>
	<path fill="#FFFFFF" d="M165.4,108.1c0,0.4-0.1,0.7-0.3,1.1s-0.6,0.6-1,0.8c0.5,0.2,0.9,0.4,1.1,0.7c0.2,0.3,0.4,0.7,0.4,1.2
		c0,0.8-0.3,1.4-0.9,1.9s-1.4,0.7-2.4,0.7c-0.9,0-1.7-0.2-2.4-0.7c-0.7-0.4-1-1.1-1-2h1.4c0,0.4,0.2,0.8,0.5,1.1
		c0.4,0.3,0.8,0.4,1.4,0.4c0.6,0,1-0.1,1.4-0.4c0.3-0.3,0.5-0.6,0.5-1c0-0.5-0.1-0.8-0.4-1c-0.3-0.2-0.7-0.3-1.3-0.3h-1.4v-1.2h1.4
		c0.6,0,1-0.1,1.2-0.3s0.4-0.5,0.4-0.9c0-0.4-0.1-0.7-0.4-0.9s-0.7-0.4-1.3-0.4c-0.5,0-0.9,0.1-1.3,0.4c-0.3,0.3-0.5,0.6-0.5,1H159
		c0-0.8,0.3-1.4,0.9-1.8c0.6-0.5,1.4-0.7,2.3-0.7c1,0,1.8,0.2,2.3,0.6C165.1,106.7,165.4,107.3,165.4,108.1z"/>
	<path fill="#FFFFFF" d="M167.3,113.1c0.4-0.5,0.8-1,1-1.6c0.2-0.5,0.4-1.4,0.5-2.5l0.1-3.2h5.4v7.3h1.1v3.6H174v-2.5h-5.9v2.5h-1.4
		l0-3.6H167.3z M170.3,109c-0.1,1-0.2,1.8-0.4,2.4c-0.2,0.7-0.5,1.2-0.8,1.7h3.9v-6h-2.6L170.3,109z"/>
	<path fill="#FFFFFF" d="M182.3,114.3c-0.1-0.3-0.1-0.5-0.1-0.7c0-0.2,0-0.4-0.1-0.5c-0.3,0.4-0.7,0.7-1.1,1
		c-0.4,0.3-0.9,0.4-1.5,0.4c-0.9,0-1.6-0.2-2-0.7c-0.5-0.4-0.7-1.1-0.7-1.9c0-0.8,0.3-1.5,1-1.9c0.6-0.4,1.5-0.7,2.7-0.7h1.6v-0.9
		c0-0.5-0.2-0.9-0.5-1.2c-0.3-0.3-0.8-0.4-1.4-0.4c-0.5,0-1,0.1-1.3,0.4s-0.5,0.6-0.5,0.9H177c0-0.7,0.3-1.2,0.9-1.7
		c0.6-0.5,1.4-0.8,2.4-0.8c1,0,1.8,0.2,2.3,0.7c0.6,0.5,0.9,1.2,0.9,2.1v4.1c0,0.3,0,0.6,0,0.9s0.1,0.6,0.2,0.8H182.3z M179.8,113.2
		c0.5,0,1-0.1,1.5-0.4s0.7-0.6,0.9-0.9v-1.6h-1.7c-0.7,0-1.2,0.2-1.6,0.5c-0.4,0.3-0.6,0.7-0.6,1.1c0,0.4,0.1,0.7,0.4,0.9
		S179.3,113.2,179.8,113.2z"/>
	<path fill="#FFFFFF" d="M192.7,114.3h-1.4v-3.6h-3.9v3.6H186v-8.5h1.5v3.7h3.9v-3.7h1.4V114.3z"/>
	<path fill="#FFFFFF" d="M200.5,105.8h1.4v8.5h-1.4v-6.2h0l-3.9,6.2h-1.4v-8.5h1.4v6.2h0L200.5,105.8z"/>
	<path fill="#FFFFFF" d="M210.8,105.8v8.5h-1.5V111h-2.2l-2,3.3h-1.6l2.1-3.5c-0.6-0.2-1-0.5-1.3-0.9c-0.3-0.4-0.4-0.9-0.4-1.5
		c0-0.8,0.3-1.4,0.8-1.9c0.6-0.5,1.4-0.7,2.4-0.7H210.8z M205.5,108.4c0,0.4,0.1,0.7,0.4,1s0.7,0.4,1.2,0.4h2.3V107h-2.1
		c-0.6,0-1,0.1-1.3,0.4S205.5,108,205.5,108.4z"/>
	<path fill="#FFFFFF" d="M219.6,111.2l0.3,1.1h0l2.1-6.5h1.6l-3.6,9.8c-0.2,0.6-0.5,1.1-0.9,1.5c-0.4,0.4-0.9,0.6-1.6,0.6
		c-0.1,0-0.3,0-0.5,0c-0.2,0-0.3-0.1-0.4-0.1l0.1-1.2c0,0,0.1,0,0.3,0s0.3,0,0.4,0c0.3,0,0.6-0.1,0.8-0.3c0.2-0.2,0.4-0.6,0.6-1.1
		l0.4-0.9l-3.2-8.3h1.6L219.6,111.2z"/>
	<path fill="#FFFFFF" d="M229.9,112.4l2.9-6.6h1.8v8.5h-1.4v-6.1h0l-2.7,6.1h-1l-2.8-6.2h0v6.2h-1.4v-8.5h1.9L229.9,112.4z"/>
	<path fill="#FFFFFF" d="M243.8,114.3h-1.4v-3.6h-3.9v3.6H237v-8.5h1.5v3.7h3.9v-3.7h1.4V114.3z"/>
	<path fill="#FFFFFF" d="M245.8,110c0-1.3,0.3-2.3,1-3.1c0.7-0.8,1.6-1.2,2.8-1.2c1.2,0,2.1,0.4,2.8,1.2c0.7,0.8,1,1.8,1,3.1v0.2
		c0,1.3-0.3,2.3-1,3.1c-0.7,0.8-1.6,1.2-2.8,1.2c-1.2,0-2.1-0.4-2.8-1.2c-0.7-0.8-1-1.8-1-3.1V110z M247.3,110.2
		c0,0.9,0.2,1.7,0.6,2.3c0.4,0.6,1,0.9,1.8,0.9c0.8,0,1.4-0.3,1.7-0.9s0.6-1.3,0.6-2.2V110c0-0.9-0.2-1.7-0.6-2.2
		c-0.4-0.6-1-0.9-1.8-0.9c-0.8,0-1.3,0.3-1.7,0.9c-0.4,0.6-0.6,1.3-0.6,2.2V110.2z"/>
	<path fill="#FFFFFF" d="M260.7,107h-3.9v7.3h-1.5v-8.5h5.4V107z"/>
	<path fill="#FFFFFF" d="M261.4,110c0-1.3,0.3-2.3,1-3.1c0.7-0.8,1.6-1.2,2.8-1.2c1.2,0,2.1,0.4,2.8,1.2c0.7,0.8,1,1.8,1,3.1v0.2
		c0,1.3-0.3,2.3-1,3.1c-0.7,0.8-1.6,1.2-2.8,1.2c-1.2,0-2.1-0.4-2.8-1.2c-0.7-0.8-1-1.8-1-3.1V110z M262.9,110.2
		c0,0.9,0.2,1.7,0.6,2.3c0.4,0.6,1,0.9,1.8,0.9c0.8,0,1.4-0.3,1.7-0.9s0.6-1.3,0.6-2.2V110c0-0.9-0.2-1.7-0.6-2.2
		c-0.4-0.6-1-0.9-1.8-0.9c-0.8,0-1.3,0.3-1.7,0.9c-0.4,0.6-0.6,1.3-0.6,2.2V110.2z"/>
	<path fill="#FFFFFF" d="M274.7,113.1c0.4-0.5,0.8-1,1-1.6c0.2-0.5,0.4-1.4,0.5-2.5l0.1-3.2h5.4v7.3h1.1v3.6h-1.4v-2.5h-5.9v2.5
		h-1.4l0-3.6H274.7z M277.6,109c-0.1,1-0.2,1.8-0.4,2.4c-0.2,0.7-0.5,1.2-0.8,1.7h3.9v-6h-2.6L277.6,109z"/>
	<path fill="#FFFFFF" d="M284.1,110c0-1.3,0.3-2.3,1-3.1c0.7-0.8,1.6-1.2,2.8-1.2c1.2,0,2.1,0.4,2.8,1.2c0.7,0.8,1,1.8,1,3.1v0.2
		c0,1.3-0.3,2.3-1,3.1c-0.7,0.8-1.6,1.2-2.8,1.2c-1.2,0-2.1-0.4-2.8-1.2c-0.7-0.8-1-1.8-1-3.1V110z M285.6,110.2
		c0,0.9,0.2,1.7,0.6,2.3c0.4,0.6,1,0.9,1.8,0.9c0.8,0,1.4-0.3,1.7-0.9s0.6-1.3,0.6-2.2V110c0-0.9-0.2-1.7-0.6-2.2
		c-0.4-0.6-1-0.9-1.8-0.9c-0.8,0-1.3,0.3-1.7,0.9c-0.4,0.6-0.6,1.3-0.6,2.2V110.2z"/>
	<path fill="#FFFFFF" d="M298.4,112.4l2.9-6.6h1.8v8.5h-1.4v-6.1h0l-2.7,6.1h-1l-2.8-6.2h0v6.2h-1.4v-8.5h1.9L298.4,112.4z"/>
	<path fill="#FFFFFF" d="M310.6,114.3c-0.1-0.3-0.1-0.5-0.1-0.7s0-0.4-0.1-0.5c-0.3,0.4-0.7,0.7-1.1,1s-0.9,0.4-1.5,0.4
		c-0.9,0-1.6-0.2-2-0.7s-0.7-1.1-0.7-1.9c0-0.8,0.3-1.5,1-1.9s1.5-0.7,2.7-0.7h1.6v-0.9c0-0.5-0.2-0.9-0.5-1.2s-0.8-0.4-1.4-0.4
		c-0.5,0-1,0.1-1.3,0.4s-0.5,0.6-0.5,0.9h-1.4c0-0.7,0.3-1.2,0.9-1.7s1.4-0.8,2.4-0.8c1,0,1.8,0.2,2.3,0.7s0.9,1.2,0.9,2.1v4.1
		c0,0.3,0,0.6,0,0.9s0.1,0.6,0.2,0.8H310.6z M308.1,113.2c0.5,0,1-0.1,1.5-0.4s0.7-0.6,0.9-0.9v-1.6h-1.7c-0.7,0-1.2,0.2-1.6,0.5
		s-0.6,0.7-0.6,1.1c0,0.4,0.1,0.7,0.4,0.9S307.6,113.2,308.1,113.2z"/>
</g>
<g>
	<path fill="#FFFFFF" d="M131,10.9c-16.3,0-29.5,13.2-29.5,29.5c0,16.3,13.2,29.5,29.5,29.5c16.3,0,29.5-13.2,29.5-29.5
		C160.5,24.1,147.3,10.9,131,10.9z M131,55.1c-8.1,0-14.7-6.6-14.7-14.7c0-8.1,6.6-14.7,14.7-14.7s14.7,6.6,14.7,14.7
		C145.7,48.6,139.1,55.1,131,55.1z"/>
	<g>
		<path opacity="0.75" fill="#5BBB5A" d="M135,26.3C135,26.3,135,26.3,135,26.3C135,26.3,135,26.3,135,26.3c0.2,0.1,0.4,0.1,0.7,0.2
			c0,0,0,0,0,0c0,0,0,0,0,0c0.2,0.1,0.4,0.1,0.6,0.2c0,0,0,0,0,0c0,0,0,0,0,0c0.2,0.1,0.4,0.2,0.6,0.2c0,0,0,0,0.1,0c0,0,0,0,0,0
			c0.2,0.1,0.4,0.2,0.6,0.3c0,0,0,0,0.1,0c0,0,0,0,0,0c0.2,0.1,0.4,0.2,0.6,0.3c0,0,0,0,0.1,0c0,0,0,0,0,0c0.2,0.1,0.4,0.2,0.5,0.3
			c0,0,0,0,0.1,0c0,0,0,0,0,0c0.2,0.1,0.3,0.2,0.5,0.3c0,0,0.1,0,0.1,0.1c0,0,0,0,0,0c0.2,0.1,0.3,0.2,0.5,0.3c0,0,0.1,0.1,0.1,0.1
			c0,0,0,0,0,0c0.1,0.1,0.3,0.2,0.4,0.3c0,0,0.1,0.1,0.1,0.1c0,0,0,0,0,0c0.1,0.1,0.3,0.2,0.4,0.4c0,0,0.1,0.1,0.1,0.1c0,0,0,0,0,0
			c0.1,0.1,0.3,0.2,0.4,0.4c0,0,0.1,0.1,0.1,0.1c0,0,0,0,0,0c0.1,0.1,0.2,0.2,0.4,0.4c0,0,0.1,0.1,0.1,0.1c0,0,0,0,0,0
			c0.1,0.1,0.2,0.3,0.3,0.4c0,0,0.1,0.1,0.1,0.1c0,0,0,0,0,0c0.1,0.1,0.2,0.3,0.3,0.4c0,0.1,0.1,0.1,0.1,0.2c0,0,0,0,0,0
			c0.1,0.1,0.2,0.3,0.3,0.4c0,0.1,0.1,0.1,0.1,0.2c0,0,0,0,0,0c0.1,0.1,0.2,0.3,0.2,0.4c0,0.1,0.1,0.1,0.1,0.2c0,0,0,0,0,0
			c0.1,0.1,0.1,0.3,0.2,0.4c0,0.1,0.1,0.1,0.1,0.2c0,0,0,0,0,0c0.1,0.1,0.1,0.3,0.2,0.4c0,0.1,0.1,0.1,0.1,0.2c0,0,0,0,0,0
			c0.1,0.1,0.1,0.3,0.2,0.4c0,0.1,0.1,0.2,0.1,0.2c0,0,0,0,0,0c0.1,0.1,0.1,0.3,0.2,0.4c0,0.1,0.1,0.2,0.1,0.3c0,0,0,0,0,0
			c0,0.1,0.1,0.3,0.1,0.4c0,0.1,0.1,0.2,0.1,0.3c0,0,0,0,0,0c0,0.1,0.1,0.3,0.1,0.4c0,0.1,0.1,0.2,0.1,0.3c0,0,0,0,0,0
			c0,0.1,0.1,0.3,0.1,0.4c0,0,0,0,0,0c0,0.1,0,0.2,0.1,0.3c0,0,0,0,0,0c0,0.1,0,0.3,0.1,0.4c0,0,0,0,0,0c0,0.1,0,0.2,0,0.3
			c0,0,0,0,0,0c0,0.1,0,0.3,0.1,0.4c0,0,0,0,0,0c0,0.1,0,0.2,0,0.2c0,0,0,0,0,0c0,0.2,0,0.3,0,0.5c0,0.1,0,0.2,0,0.2
			c-0.1-3.9-1.3-7.6-3.2-10.8c-3.2-1.9-6.8-3.1-10.8-3.2C132.9,25.8,134,26,135,26.3z"/>
		<path opacity="0.75" fill="#5BBB5A" d="M130.3,25.8C129,25.8,130.2,25.8,130.3,25.8c0.3,0,1.3,0,1.5,0c0.1,0,1.1,0.1,0,0
			c3.9,0.1,7.6,1.3,10.8,3.2c-2.6-4.3-6.7-7.7-11.6-9.4c-4.8,1.7-8.9,5.1-11.6,9.4C122.7,27.1,126.4,25.9,130.3,25.8z"/>
		<path opacity="0.75" fill="#5BBB5A" d="M119.5,29c2.6-4.3,6.7-7.7,11.6-9.4c-2.3-0.8-4.8-1.3-7.4-1.3c-4.2,0-8.2,1.2-11.6,3.2
			c-2.1,3.4-3.2,7.3-3.2,11.6c0,2.6,0.5,5.1,1.3,7.4C111.9,35.7,115.2,31.6,119.5,29z"/>
		<path opacity="0.75" fill="#5BBB5A" d="M110.1,40.5c-0.8-2.3-1.3-4.8-1.3-7.4c0-4.2,1.2-8.2,3.2-11.6c-6.4,3.9-10.7,10.9-10.7,19
			s4.3,15.1,10.7,19c-2.1-3.4-3.2-7.3-3.2-11.6C108.9,45.3,109.3,42.9,110.1,40.5z"/>
		<path opacity="0.75" fill="#5BBB5A" d="M112.1,59.5c-6.1-3.7-10.3-10.3-10.6-18c0.5,15.6,13,28.1,28.6,28.6
			C122.5,69.8,115.8,65.6,112.1,59.5z"/>
		<path fill="#5CBB5B" d="M145.3,44.5C145.3,44.5,145.3,44.5,145.3,44.5C145.3,44.5,145.3,44.5,145.3,44.5c-0.1,0.2-0.1,0.4-0.2,0.7
			c0,0,0,0,0,0c0,0,0,0,0,0c-0.1,0.2-0.1,0.4-0.2,0.6c0,0,0,0,0,0c0,0,0,0,0,0c-0.1,0.2-0.2,0.4-0.2,0.6c0,0,0,0,0,0.1c0,0,0,0,0,0
			c-0.1,0.2-0.2,0.4-0.3,0.6c0,0,0,0,0,0.1c0,0,0,0,0,0c-0.1,0.2-0.2,0.4-0.3,0.6c0,0,0,0,0,0.1c0,0,0,0,0,0
			c-0.1,0.2-0.2,0.4-0.3,0.5c0,0,0,0,0,0.1c0,0,0,0,0,0c-0.1,0.2-0.2,0.3-0.3,0.5c0,0,0,0.1-0.1,0.1c0,0,0,0,0,0
			c-0.1,0.2-0.2,0.3-0.3,0.5c0,0-0.1,0.1-0.1,0.1c0,0,0,0,0,0c-0.1,0.1-0.2,0.3-0.3,0.4c0,0-0.1,0.1-0.1,0.1c0,0,0,0,0,0
			c-0.1,0.1-0.2,0.3-0.4,0.4c0,0-0.1,0.1-0.1,0.1c0,0,0,0,0,0c-0.1,0.1-0.2,0.3-0.4,0.4c0,0-0.1,0.1-0.1,0.1c0,0,0,0,0,0
			c-0.1,0.1-0.2,0.2-0.4,0.4c0,0-0.1,0.1-0.1,0.1c0,0,0,0,0,0c-0.1,0.1-0.3,0.2-0.4,0.3c0,0-0.1,0.1-0.1,0.1c0,0,0,0,0,0
			c-0.1,0.1-0.3,0.2-0.4,0.3c-0.1,0-0.1,0.1-0.2,0.1c0,0,0,0,0,0c-0.1,0.1-0.3,0.2-0.4,0.3c-0.1,0-0.1,0.1-0.2,0.1c0,0,0,0,0,0
			c-0.1,0.1-0.3,0.2-0.4,0.2c-0.1,0-0.1,0.1-0.2,0.1c0,0,0,0,0,0c-0.1,0.1-0.3,0.1-0.4,0.2c-0.1,0-0.1,0.1-0.2,0.1c0,0,0,0,0,0
			c-0.1,0.1-0.3,0.1-0.4,0.2c-0.1,0-0.1,0.1-0.2,0.1c0,0,0,0,0,0c-0.1,0.1-0.3,0.1-0.4,0.2c-0.1,0-0.2,0.1-0.2,0.1c0,0,0,0,0,0
			c-0.1,0.1-0.3,0.1-0.4,0.2c-0.1,0-0.2,0.1-0.3,0.1c0,0,0,0,0,0c-0.1,0-0.3,0.1-0.4,0.1c-0.1,0-0.2,0.1-0.3,0.1c0,0,0,0,0,0
			c-0.1,0-0.3,0.1-0.4,0.1c-0.1,0-0.2,0.1-0.3,0.1c0,0,0,0,0,0c-0.1,0-0.3,0.1-0.4,0.1c0,0,0,0,0,0c-0.1,0-0.2,0-0.3,0.1
			c0,0,0,0,0,0c-0.1,0-0.3,0-0.4,0.1c0,0,0,0,0,0c-0.1,0-0.2,0-0.3,0c0,0,0,0,0,0c-0.1,0-0.3,0-0.4,0.1c0,0,0,0,0,0
			c-0.1,0-0.2,0-0.2,0c0,0,0,0,0,0c-0.2,0-0.3,0-0.5,0c-0.1,0-0.2,0-0.2,0c3.9-0.1,7.6-1.3,10.8-3.2c1.9-3.2,3.1-6.8,3.2-10.8
			C145.8,42.4,145.6,43.4,145.3,44.5z"/>
		<path fill="#5CBB5B" d="M145.9,39.8C145.8,38.4,145.9,39.7,145.9,39.8c0,0.3,0,1.3,0,1.5c0,0.1-0.1,1.1,0,0
			c-0.1,3.9-1.3,7.6-3.2,10.8c4.3-2.6,7.7-6.7,9.4-11.6c-1.7-4.8-5.1-8.9-9.4-11.6C144.6,32.1,145.7,35.8,145.9,39.8z"/>
		<path fill="#5CBB5B" d="M142.6,29c4.3,2.6,7.7,6.7,9.4,11.6c0.8-2.3,1.3-4.8,1.3-7.4c0-4.2-1.2-8.2-3.2-11.6
			c-3.4-2.1-7.3-3.2-11.6-3.2c-2.6,0-5.1,0.5-7.4,1.3C135.9,21.3,140,24.6,142.6,29z"/>
		<path fill="#5CBB5B" d="M131.1,19.6c2.3-0.8,4.8-1.3,7.4-1.3c4.2,0,8.2,1.2,11.6,3.2c-3.9-6.4-10.9-10.7-19-10.7
			s-15.1,4.3-19,10.7c3.4-2.1,7.3-3.2,11.6-3.2C126.3,18.3,128.8,18.7,131.1,19.6z"/>
		<path fill="#5CBB5B" d="M112.1,21.5c3.7-6.1,10.3-10.3,18-10.6c-15.6,0.5-28.1,13-28.6,28.6C101.8,31.9,106,25.3,112.1,21.5z"/>
		<path fill="#2A87C0" d="M150.1,21.5c6.1,3.7,10.3,10.3,10.6,18c-0.5-15.6-13-28.1-28.6-28.6C139.7,11.2,146.3,15.4,150.1,21.5z"/>
		<path fill="#2A87C0" d="M152,40.5c0.8,2.3,1.3,4.8,1.3,7.4c0,4.2-1.2,8.2-3.2,11.6c6.4-3.9,10.7-10.9,10.7-19s-4.3-15.1-10.7-19
			c2.1,3.4,3.2,7.3,3.2,11.6C153.3,35.7,152.8,38.2,152,40.5z"/>
		<path fill="#2A87C0" d="M142.6,52c-2.6,4.3-6.7,7.7-11.6,9.4c2.3,0.8,4.8,1.3,7.4,1.3c4.2,0,8.2-1.2,11.6-3.2
			c2.1-3.4,3.2-7.3,3.2-11.6c0-2.6-0.5-5.1-1.3-7.4C150.3,45.3,147,49.4,142.6,52z"/>
		<path fill="#2A87C0" d="M131.8,55.3C133.2,55.2,131.9,55.3,131.8,55.3c-0.3,0-1.3,0-1.5,0c-0.1,0-1.1-0.1,0,0
			c-3.9-0.1-7.6-1.3-10.8-3.2c2.6,4.3,6.7,7.7,11.6,9.4c4.8-1.7,8.9-5.1,11.6-9.4C139.5,54,135.8,55.1,131.8,55.3z"/>
		<path fill="#2A87C0" d="M127.1,54.7C127.1,54.7,127.1,54.7,127.1,54.7L127.1,54.7c-0.2-0.1-0.4-0.1-0.7-0.2c0,0,0,0,0,0
			c0,0,0,0,0,0c-0.2-0.1-0.4-0.1-0.6-0.2c0,0,0,0,0,0c0,0,0,0,0,0c-0.2-0.1-0.4-0.2-0.6-0.2c0,0,0,0-0.1,0c0,0,0,0,0,0
			c-0.2-0.1-0.4-0.2-0.6-0.3c0,0,0,0-0.1,0c0,0,0,0,0,0c-0.2-0.1-0.4-0.2-0.6-0.3c0,0,0,0-0.1,0c0,0,0,0,0,0
			c-0.2-0.1-0.4-0.2-0.5-0.3c0,0,0,0-0.1,0c0,0,0,0,0,0c-0.2-0.1-0.3-0.2-0.5-0.3c0,0-0.1,0-0.1-0.1c0,0,0,0,0,0
			c-0.2-0.1-0.3-0.2-0.5-0.3c0,0-0.1-0.1-0.1-0.1c0,0,0,0,0,0c-0.1-0.1-0.3-0.2-0.4-0.3c0,0-0.1-0.1-0.1-0.1c0,0,0,0,0,0
			c-0.1-0.1-0.3-0.2-0.4-0.4c0,0-0.1-0.1-0.1-0.1c0,0,0,0,0,0c-0.1-0.1-0.3-0.2-0.4-0.4c0,0-0.1-0.1-0.1-0.1c0,0,0,0,0,0
			c-0.1-0.1-0.2-0.2-0.4-0.4c0,0-0.1-0.1-0.1-0.1c0,0,0,0,0,0c-0.1-0.1-0.2-0.3-0.3-0.4c0,0-0.1-0.1-0.1-0.1c0,0,0,0,0,0
			c-0.1-0.1-0.2-0.3-0.3-0.4c0-0.1-0.1-0.1-0.1-0.2c0,0,0,0,0,0c-0.1-0.1-0.2-0.3-0.3-0.4c0-0.1-0.1-0.1-0.1-0.2c0,0,0,0,0,0
			c-0.1-0.1-0.2-0.3-0.2-0.4c0-0.1-0.1-0.1-0.1-0.2c0,0,0,0,0,0c-0.1-0.1-0.1-0.3-0.2-0.4c0-0.1-0.1-0.1-0.1-0.2c0,0,0,0,0,0
			c-0.1-0.1-0.1-0.3-0.2-0.4c0-0.1-0.1-0.1-0.1-0.2c0,0,0,0,0,0c-0.1-0.1-0.1-0.3-0.2-0.4c0-0.1-0.1-0.2-0.1-0.2c0,0,0,0,0,0
			c-0.1-0.1-0.1-0.3-0.2-0.4c0-0.1-0.1-0.2-0.1-0.3c0,0,0,0,0,0c0-0.1-0.1-0.3-0.1-0.4c0-0.1-0.1-0.2-0.1-0.3c0,0,0,0,0,0
			c0-0.1-0.1-0.3-0.1-0.4c0-0.1-0.1-0.2-0.1-0.3c0,0,0,0,0,0c0-0.1-0.1-0.3-0.1-0.4c0,0,0,0,0,0c0-0.1,0-0.2-0.1-0.3c0,0,0,0,0,0
			c0-0.1,0-0.3-0.1-0.4c0,0,0,0,0,0c0-0.1,0-0.2,0-0.3c0,0,0,0,0,0c0-0.1,0-0.3-0.1-0.4c0,0,0,0,0,0c0-0.1,0-0.2,0-0.2c0,0,0,0,0,0
			c0-0.2,0-0.3,0-0.5c0-0.1,0-0.2,0-0.2c0.1,3.9,1.3,7.6,3.2,10.8c3.2,1.9,6.8,3.1,10.8,3.2C129.2,55.2,128.2,55,127.1,54.7z"/>
		<path fill="#9C57A3" d="M116.8,36.5C116.8,36.5,116.8,36.5,116.8,36.5C116.8,36.5,116.8,36.5,116.8,36.5c0.1-0.2,0.1-0.4,0.2-0.7
			c0,0,0,0,0,0c0,0,0,0,0,0c0.1-0.2,0.1-0.4,0.2-0.6c0,0,0,0,0,0c0,0,0,0,0,0c0.1-0.2,0.2-0.4,0.2-0.6c0,0,0,0,0-0.1c0,0,0,0,0,0
			c0.1-0.2,0.2-0.4,0.3-0.6c0,0,0,0,0-0.1c0,0,0,0,0,0c0.1-0.2,0.2-0.4,0.3-0.6c0,0,0,0,0-0.1c0,0,0,0,0,0c0.1-0.2,0.2-0.4,0.3-0.5
			c0,0,0,0,0-0.1c0,0,0,0,0,0c0.1-0.2,0.2-0.3,0.3-0.5c0,0,0-0.1,0.1-0.1c0,0,0,0,0,0c0.1-0.2,0.2-0.3,0.3-0.5c0,0,0.1-0.1,0.1-0.1
			c0,0,0,0,0,0c0.1-0.1,0.2-0.3,0.3-0.4c0,0,0.1-0.1,0.1-0.1c0,0,0,0,0,0c0.1-0.1,0.2-0.3,0.4-0.4c0,0,0.1-0.1,0.1-0.1c0,0,0,0,0,0
			c0.1-0.1,0.2-0.3,0.4-0.4c0,0,0.1-0.1,0.1-0.1c0,0,0,0,0,0c0.1-0.1,0.2-0.2,0.4-0.4c0,0,0.1-0.1,0.1-0.1c0,0,0,0,0,0
			c0.1-0.1,0.3-0.2,0.4-0.3c0,0,0.1-0.1,0.1-0.1c0,0,0,0,0,0c0.1-0.1,0.3-0.2,0.4-0.3c0.1,0,0.1-0.1,0.2-0.1c0,0,0,0,0,0
			c0.1-0.1,0.3-0.2,0.4-0.3c0.1,0,0.1-0.1,0.2-0.1c0,0,0,0,0,0c0.1-0.1,0.3-0.2,0.4-0.2c0.1,0,0.1-0.1,0.2-0.1c0,0,0,0,0,0
			c0.1-0.1,0.3-0.1,0.4-0.2c0.1,0,0.1-0.1,0.2-0.1c0,0,0,0,0,0c0.1-0.1,0.3-0.1,0.4-0.2c0.1,0,0.1-0.1,0.2-0.1c0,0,0,0,0,0
			c0.1-0.1,0.3-0.1,0.4-0.2c0.1,0,0.2-0.1,0.2-0.1c0,0,0,0,0,0c0.1-0.1,0.3-0.1,0.4-0.2c0.1,0,0.2-0.1,0.3-0.1c0,0,0,0,0,0
			c0.1,0,0.3-0.1,0.4-0.1c0.1,0,0.2-0.1,0.3-0.1c0,0,0,0,0,0c0.1,0,0.3-0.1,0.4-0.1c0.1,0,0.2-0.1,0.3-0.1c0,0,0,0,0,0
			c0.1,0,0.3-0.1,0.4-0.1c0,0,0,0,0,0c0.1,0,0.2,0,0.3-0.1c0,0,0,0,0,0c0.1,0,0.3,0,0.4-0.1c0,0,0,0,0,0c0.1,0,0.2,0,0.3,0
			c0,0,0,0,0,0c0.1,0,0.3,0,0.4-0.1c0,0,0,0,0,0c0.1,0,0.2,0,0.2,0c0,0,0,0,0,0c0.2,0,0.3,0,0.5,0c0.1,0,0.2,0,0.2,0
			c-3.9,0.1-7.6,1.3-10.8,3.2c-1.9,3.2-3.1,6.8-3.2,10.8C116.4,38.6,116.5,37.6,116.8,36.5z"/>
		<path fill="#9C57A3" d="M116.3,41.3C116.4,42.6,116.3,41.3,116.3,41.3c0-0.3,0-1.3,0-1.5c0-0.1,0.1-1.1,0,0
			c0.1-3.9,1.3-7.6,3.2-10.8c-4.3,2.6-7.7,6.7-9.4,11.6c1.7,4.8,5.1,8.9,9.4,11.6C117.6,48.9,116.4,45.2,116.3,41.3z"/>
		<path fill="#9C57A3" d="M119.5,52c-4.3-2.6-7.7-6.7-9.4-11.6c-0.8,2.3-1.3,4.8-1.3,7.4c0,4.2,1.2,8.2,3.2,11.6
			c3.4,2.1,7.3,3.2,11.6,3.2c2.6,0,5.1-0.5,7.4-1.3C126.2,59.7,122.2,56.4,119.5,52z"/>
		<path fill="#9C57A3" d="M131.1,61.4c-2.3,0.8-4.8,1.3-7.4,1.3c-4.2,0-8.2-1.2-11.6-3.2c3.9,6.4,10.9,10.7,19,10.7
			c8,0,15.1-4.3,19-10.7c-3.4,2.1-7.3,3.2-11.6,3.2C135.9,62.7,133.4,62.3,131.1,61.4z"/>
		<path fill="#9C57A3" d="M150.1,59.5c-3.7,6.1-10.3,10.3-18,10.6c15.6-0.5,28.1-13,28.6-28.6C160.4,49.1,156.2,55.7,150.1,59.5z"/>
	</g>
</g>
<g>
	<path fill="#FFFFFF" d="M193.9,70.1c16.3,0,29.5-13.2,29.5-29.5c0-16.3-13.2-29.5-29.5-29.5s-29.5,13.2-29.5,29.5
		C164.4,56.9,177.6,70.1,193.9,70.1z M193.9,25.9c8.1,0,14.7,6.6,14.7,14.7c0,8.1-6.6,14.7-14.7,14.7c-8.1,0-14.7-6.6-14.7-14.7
		C179.2,32.5,185.8,25.9,193.9,25.9z"/>
	<g>
		<path opacity="0.75" fill="#5BBB5A" d="M189.9,54.7C189.9,54.7,189.9,54.7,189.9,54.7L189.9,54.7c-0.2-0.1-0.4-0.1-0.7-0.2
			c0,0,0,0,0,0c0,0,0,0,0,0c-0.2-0.1-0.4-0.1-0.6-0.2c0,0,0,0,0,0c0,0,0,0,0,0c-0.2-0.1-0.4-0.2-0.6-0.2c0,0,0,0-0.1,0c0,0,0,0,0,0
			c-0.2-0.1-0.4-0.2-0.6-0.3c0,0,0,0-0.1,0c0,0,0,0,0,0c-0.2-0.1-0.4-0.2-0.6-0.3c0,0,0,0-0.1,0c0,0,0,0,0,0
			c-0.2-0.1-0.4-0.2-0.5-0.3c0,0,0,0-0.1,0c0,0,0,0,0,0c-0.2-0.1-0.3-0.2-0.5-0.3c0,0-0.1,0-0.1-0.1c0,0,0,0,0,0
			c-0.2-0.1-0.3-0.2-0.5-0.3c0,0-0.1-0.1-0.1-0.1c0,0,0,0,0,0c-0.1-0.1-0.3-0.2-0.4-0.3c0,0-0.1-0.1-0.1-0.1c0,0,0,0,0,0
			c-0.1-0.1-0.3-0.2-0.4-0.4c0,0-0.1-0.1-0.1-0.1c0,0,0,0,0,0c-0.1-0.1-0.3-0.2-0.4-0.4c0,0-0.1-0.1-0.1-0.1c0,0,0,0,0,0
			c-0.1-0.1-0.2-0.2-0.4-0.4c0,0-0.1-0.1-0.1-0.1c0,0,0,0,0,0c-0.1-0.1-0.2-0.3-0.3-0.4c0,0-0.1-0.1-0.1-0.1c0,0,0,0,0,0
			c-0.1-0.1-0.2-0.3-0.3-0.4c0-0.1-0.1-0.1-0.1-0.2c0,0,0,0,0,0c-0.1-0.1-0.2-0.3-0.3-0.4c0-0.1-0.1-0.1-0.1-0.2c0,0,0,0,0,0
			c-0.1-0.1-0.2-0.3-0.2-0.4c0-0.1-0.1-0.1-0.1-0.2c0,0,0,0,0,0c-0.1-0.1-0.1-0.3-0.2-0.4c0-0.1-0.1-0.1-0.1-0.2c0,0,0,0,0,0
			c-0.1-0.1-0.1-0.3-0.2-0.4c0-0.1-0.1-0.1-0.1-0.2c0,0,0,0,0,0c-0.1-0.1-0.1-0.3-0.2-0.4c0-0.1-0.1-0.2-0.1-0.2c0,0,0,0,0,0
			c-0.1-0.1-0.1-0.3-0.2-0.4c0-0.1-0.1-0.2-0.1-0.3c0,0,0,0,0,0c0-0.1-0.1-0.3-0.1-0.4c0-0.1-0.1-0.2-0.1-0.3c0,0,0,0,0,0
			c0-0.1-0.1-0.3-0.1-0.4c0-0.1-0.1-0.2-0.1-0.3c0,0,0,0,0,0c0-0.1-0.1-0.3-0.1-0.4c0,0,0,0,0,0c0-0.1,0-0.2-0.1-0.3c0,0,0,0,0,0
			c0-0.1,0-0.3-0.1-0.4c0,0,0,0,0,0c0-0.1,0-0.2,0-0.3c0,0,0,0,0,0c0-0.1,0-0.3-0.1-0.4c0,0,0,0,0,0c0-0.1,0-0.2,0-0.2c0,0,0,0,0,0
			c0-0.2,0-0.3,0-0.5c0-0.1,0-0.2,0-0.2c0.1,3.9,1.3,7.6,3.2,10.8c3.2,1.9,6.8,3.1,10.8,3.2C192,55.2,190.9,55,189.9,54.7z"/>
		<path opacity="0.75" fill="#5BBB5A" d="M194.6,55.3C195.9,55.2,194.7,55.3,194.6,55.3c-0.3,0-1.3,0-1.5,0c-0.1,0-1.1-0.1,0,0
			c-3.9-0.1-7.6-1.3-10.8-3.2c2.6,4.3,6.7,7.7,11.6,9.4c4.8-1.7,8.9-5.1,11.6-9.4C202.2,54,198.5,55.1,194.6,55.3z"/>
		<path opacity="0.75" fill="#5BBB5A" d="M205.4,52c-2.6,4.3-6.7,7.7-11.6,9.4c2.3,0.8,4.8,1.3,7.4,1.3c4.2,0,8.2-1.2,11.6-3.2
			c2.1-3.4,3.2-7.3,3.2-11.6c0-2.6-0.5-5.1-1.3-7.4C213.1,45.3,209.7,49.4,205.4,52z"/>
		<path opacity="0.75" fill="#5BBB5A" d="M214.8,40.5c0.8,2.3,1.3,4.8,1.3,7.4c0,4.2-1.2,8.2-3.2,11.6c6.4-3.9,10.7-10.9,10.7-19
			s-4.3-15.1-10.7-19c2.1,3.4,3.2,7.3,3.2,11.6C216.1,35.7,215.6,38.2,214.8,40.5z"/>
		<path opacity="0.75" fill="#5BBB5A" d="M212.8,21.5c6.1,3.7,10.3,10.3,10.6,18c-0.5-15.6-13-28.1-28.6-28.6
			C202.5,11.2,209.1,15.4,212.8,21.5z"/>
		<path fill="#5CBB5B" d="M179.6,36.6C179.6,36.6,179.6,36.5,179.6,36.6L179.6,36.6c0.1-0.2,0.1-0.4,0.2-0.7c0,0,0,0,0,0
			c0,0,0,0,0,0c0.1-0.2,0.1-0.4,0.2-0.6c0,0,0,0,0,0c0,0,0,0,0,0c0.1-0.2,0.2-0.4,0.2-0.6c0,0,0,0,0-0.1c0,0,0,0,0,0
			c0.1-0.2,0.2-0.4,0.3-0.6c0,0,0,0,0-0.1c0,0,0,0,0,0c0.1-0.2,0.2-0.4,0.3-0.6c0,0,0,0,0-0.1c0,0,0,0,0,0c0.1-0.2,0.2-0.4,0.3-0.5
			c0,0,0,0,0-0.1c0,0,0,0,0,0c0.1-0.2,0.2-0.3,0.3-0.5c0,0,0-0.1,0.1-0.1c0,0,0,0,0,0c0.1-0.2,0.2-0.3,0.3-0.5c0,0,0.1-0.1,0.1-0.1
			c0,0,0,0,0,0c0.1-0.1,0.2-0.3,0.3-0.4c0,0,0.1-0.1,0.1-0.1c0,0,0,0,0,0c0.1-0.1,0.2-0.3,0.4-0.4c0,0,0.1-0.1,0.1-0.1c0,0,0,0,0,0
			c0.1-0.1,0.2-0.3,0.4-0.4c0,0,0.1-0.1,0.1-0.1c0,0,0,0,0,0c0.1-0.1,0.2-0.2,0.4-0.4c0,0,0.1-0.1,0.1-0.1c0,0,0,0,0,0
			c0.1-0.1,0.3-0.2,0.4-0.3c0,0,0.1-0.1,0.1-0.1c0,0,0,0,0,0c0.1-0.1,0.3-0.2,0.4-0.3c0.1,0,0.1-0.1,0.2-0.1c0,0,0,0,0,0
			c0.1-0.1,0.3-0.2,0.4-0.3c0.1,0,0.1-0.1,0.2-0.1c0,0,0,0,0,0c0.1-0.1,0.3-0.2,0.4-0.2c0.1,0,0.1-0.1,0.2-0.1c0,0,0,0,0,0
			c0.1-0.1,0.3-0.1,0.4-0.2c0.1,0,0.1-0.1,0.2-0.1c0,0,0,0,0,0c0.1-0.1,0.3-0.1,0.4-0.2c0.1,0,0.1-0.1,0.2-0.1c0,0,0,0,0,0
			c0.1-0.1,0.3-0.1,0.4-0.2c0.1,0,0.2-0.1,0.2-0.1c0,0,0,0,0,0c0.1-0.1,0.3-0.1,0.4-0.2c0.1,0,0.2-0.1,0.3-0.1c0,0,0,0,0,0
			c0.1,0,0.3-0.1,0.4-0.1c0.1,0,0.2-0.1,0.3-0.1c0,0,0,0,0,0c0.1,0,0.3-0.1,0.4-0.1c0.1,0,0.2-0.1,0.3-0.1c0,0,0,0,0,0
			c0.1,0,0.3-0.1,0.4-0.1c0,0,0,0,0,0c0.1,0,0.2,0,0.3-0.1c0,0,0,0,0,0c0.1,0,0.3,0,0.4-0.1c0,0,0,0,0,0c0.1,0,0.2,0,0.3,0
			c0,0,0,0,0,0c0.1,0,0.3,0,0.4-0.1c0,0,0,0,0,0c0.1,0,0.2,0,0.2,0c0,0,0,0,0,0c0.2,0,0.3,0,0.5,0c0.1,0,0.2,0,0.2,0
			c-3.9,0.1-7.6,1.3-10.8,3.2c-1.9,3.2-3.1,6.8-3.2,10.8C179.1,38.6,179.3,37.6,179.6,36.6z"/>
		<path fill="#5CBB5B" d="M179.1,41.3C179.1,42.6,179.1,41.3,179.1,41.3c0-0.3,0-1.3,0-1.5c0-0.1,0.1-1.1,0,0
			c0.1-3.9,1.3-7.6,3.2-10.8c-4.3,2.6-7.7,6.7-9.4,11.6c1.7,4.8,5.1,8.9,9.4,11.6C180.4,48.9,179.2,45.2,179.1,41.3z"/>
		<path fill="#5CBB5B" d="M182.3,52.1c-4.3-2.6-7.7-6.7-9.4-11.6c-0.8,2.3-1.3,4.8-1.3,7.4c0,4.2,1.2,8.2,3.2,11.6
			c3.4,2.1,7.3,3.2,11.6,3.2c2.6,0,5.1-0.5,7.4-1.3C189,59.7,184.9,56.4,182.3,52.1z"/>
		<path fill="#5CBB5B" d="M193.8,61.5c-2.3,0.8-4.8,1.3-7.4,1.3c-4.2,0-8.2-1.2-11.6-3.2c3.9,6.4,10.9,10.7,19,10.7
			c8,0,15.1-4.3,19-10.7c-3.4,2.1-7.3,3.2-11.6,3.2C198.7,62.7,196.2,62.3,193.8,61.5z"/>
		<path fill="#5CBB5B" d="M212.8,59.5c-3.7,6.1-10.3,10.3-18,10.6c15.6-0.5,28.1-13,28.6-28.6C223.1,49.1,218.9,55.7,212.8,59.5z"/>
		<path fill="#2A87C0" d="M174.9,59.5c-6.1-3.7-10.3-10.3-10.6-18c0.5,15.6,13,28.1,28.6,28.6C185.2,69.8,178.6,65.6,174.9,59.5z"/>
		<path fill="#2A87C0" d="M172.9,40.5c-0.8-2.3-1.3-4.8-1.3-7.4c0-4.2,1.2-8.2,3.2-11.6c-6.4,3.9-10.7,10.9-10.7,19
			s4.3,15.1,10.7,19c-2.1-3.4-3.2-7.3-3.2-11.6C171.6,45.3,172.1,42.9,172.9,40.5z"/>
		<path fill="#2A87C0" d="M182.3,29c2.6-4.3,6.7-7.7,11.6-9.4c-2.3-0.8-4.8-1.3-7.4-1.3c-4.2,0-8.2,1.2-11.6,3.2
			c-2.1,3.4-3.2,7.3-3.2,11.6c0,2.6,0.5,5.1,1.3,7.4C174.6,35.7,178,31.6,182.3,29z"/>
		<path fill="#2A87C0" d="M193.1,25.8C191.7,25.8,193,25.8,193.1,25.8c0.3,0,1.3,0,1.5,0c0.1,0,1.1,0.1,0,0
			c3.9,0.1,7.6,1.3,10.8,3.2c-2.6-4.3-6.7-7.7-11.6-9.4c-4.8,1.7-8.9,5.1-11.6,9.4C185.4,27.1,189.1,25.9,193.1,25.8z"/>
		<path fill="#2A87C0" d="M197.8,26.3C197.8,26.3,197.8,26.3,197.8,26.3C197.8,26.3,197.8,26.3,197.8,26.3c0.2,0.1,0.4,0.1,0.7,0.2
			c0,0,0,0,0,0c0,0,0,0,0,0c0.2,0.1,0.4,0.1,0.6,0.2c0,0,0,0,0,0c0,0,0,0,0,0c0.2,0.1,0.4,0.2,0.6,0.2c0,0,0,0,0.1,0c0,0,0,0,0,0
			c0.2,0.1,0.4,0.2,0.6,0.3c0,0,0,0,0.1,0c0,0,0,0,0,0c0.2,0.1,0.4,0.2,0.6,0.3c0,0,0,0,0.1,0c0,0,0,0,0,0c0.2,0.1,0.4,0.2,0.5,0.3
			c0,0,0,0,0.1,0c0,0,0,0,0,0c0.2,0.1,0.3,0.2,0.5,0.3c0,0,0.1,0,0.1,0.1c0,0,0,0,0,0c0.2,0.1,0.3,0.2,0.5,0.3c0,0,0.1,0.1,0.1,0.1
			c0,0,0,0,0,0c0.1,0.1,0.3,0.2,0.4,0.3c0,0,0.1,0.1,0.1,0.1c0,0,0,0,0,0c0.1,0.1,0.3,0.2,0.4,0.4c0,0,0.1,0.1,0.1,0.1c0,0,0,0,0,0
			c0.1,0.1,0.3,0.2,0.4,0.4c0,0,0.1,0.1,0.1,0.1c0,0,0,0,0,0c0.1,0.1,0.2,0.2,0.4,0.4c0,0,0.1,0.1,0.1,0.1c0,0,0,0,0,0
			c0.1,0.1,0.2,0.3,0.3,0.4c0,0,0.1,0.1,0.1,0.1c0,0,0,0,0,0c0.1,0.1,0.2,0.3,0.3,0.4c0,0.1,0.1,0.1,0.1,0.2c0,0,0,0,0,0
			c0.1,0.1,0.2,0.3,0.3,0.4c0,0.1,0.1,0.1,0.1,0.2c0,0,0,0,0,0c0.1,0.1,0.2,0.3,0.2,0.4c0,0.1,0.1,0.1,0.1,0.2c0,0,0,0,0,0
			c0.1,0.1,0.1,0.3,0.2,0.4c0,0.1,0.1,0.1,0.1,0.2c0,0,0,0,0,0c0.1,0.1,0.1,0.3,0.2,0.4c0,0.1,0.1,0.1,0.1,0.2c0,0,0,0,0,0
			c0.1,0.1,0.1,0.3,0.2,0.4c0,0.1,0.1,0.2,0.1,0.2c0,0,0,0,0,0c0.1,0.1,0.1,0.3,0.2,0.4c0,0.1,0.1,0.2,0.1,0.3c0,0,0,0,0,0
			c0,0.1,0.1,0.3,0.1,0.4c0,0.1,0.1,0.2,0.1,0.3c0,0,0,0,0,0c0,0.1,0.1,0.3,0.1,0.4c0,0.1,0.1,0.2,0.1,0.3c0,0,0,0,0,0
			c0,0.1,0.1,0.3,0.1,0.4c0,0,0,0,0,0c0,0.1,0,0.2,0.1,0.3c0,0,0,0,0,0c0,0.1,0,0.3,0.1,0.4c0,0,0,0,0,0c0,0.1,0,0.2,0,0.3
			c0,0,0,0,0,0c0,0.1,0,0.3,0.1,0.4c0,0,0,0,0,0c0,0.1,0,0.2,0,0.2c0,0,0,0,0,0c0,0.2,0,0.3,0,0.5c0,0.1,0,0.2,0,0.2
			c-0.1-3.9-1.3-7.6-3.2-10.8c-3.2-1.9-6.8-3.1-10.8-3.2C195.7,25.8,196.8,26,197.8,26.3z"/>
		<path fill="#9C57A3" d="M208.1,44.5C208.1,44.5,208.1,44.5,208.1,44.5L208.1,44.5c-0.1,0.2-0.1,0.4-0.2,0.7c0,0,0,0,0,0
			c0,0,0,0,0,0c-0.1,0.2-0.1,0.4-0.2,0.6c0,0,0,0,0,0c0,0,0,0,0,0c-0.1,0.2-0.2,0.4-0.2,0.6c0,0,0,0,0,0.1c0,0,0,0,0,0
			c-0.1,0.2-0.2,0.4-0.3,0.6c0,0,0,0,0,0.1c0,0,0,0,0,0c-0.1,0.2-0.2,0.4-0.3,0.6c0,0,0,0,0,0.1c0,0,0,0,0,0
			c-0.1,0.2-0.2,0.4-0.3,0.5c0,0,0,0,0,0.1c0,0,0,0,0,0c-0.1,0.2-0.2,0.3-0.3,0.5c0,0,0,0.1-0.1,0.1c0,0,0,0,0,0
			c-0.1,0.2-0.2,0.3-0.3,0.5c0,0-0.1,0.1-0.1,0.1c0,0,0,0,0,0c-0.1,0.1-0.2,0.3-0.3,0.4c0,0-0.1,0.1-0.1,0.1c0,0,0,0,0,0
			c-0.1,0.1-0.2,0.3-0.4,0.4c0,0-0.1,0.1-0.1,0.1c0,0,0,0,0,0c-0.1,0.1-0.2,0.3-0.4,0.4c0,0-0.1,0.1-0.1,0.1c0,0,0,0,0,0
			c-0.1,0.1-0.2,0.2-0.4,0.4c0,0-0.1,0.1-0.1,0.1c0,0,0,0,0,0c-0.1,0.1-0.3,0.2-0.4,0.3c0,0-0.1,0.1-0.1,0.1c0,0,0,0,0,0
			c-0.1,0.1-0.3,0.2-0.4,0.3c-0.1,0-0.1,0.1-0.2,0.1c0,0,0,0,0,0c-0.1,0.1-0.3,0.2-0.4,0.3c-0.1,0-0.1,0.1-0.2,0.1c0,0,0,0,0,0
			c-0.1,0.1-0.3,0.2-0.4,0.2c-0.1,0-0.1,0.1-0.2,0.1c0,0,0,0,0,0c-0.1,0.1-0.3,0.1-0.4,0.2c-0.1,0-0.1,0.1-0.2,0.1c0,0,0,0,0,0
			c-0.1,0.1-0.3,0.1-0.4,0.2c-0.1,0-0.1,0.1-0.2,0.1c0,0,0,0,0,0c-0.1,0.1-0.3,0.1-0.4,0.2c-0.1,0-0.2,0.1-0.2,0.1c0,0,0,0,0,0
			c-0.1,0.1-0.3,0.1-0.4,0.2c-0.1,0-0.2,0.1-0.3,0.1c0,0,0,0,0,0c-0.1,0-0.3,0.1-0.4,0.1c-0.1,0-0.2,0.1-0.3,0.1c0,0,0,0,0,0
			c-0.1,0-0.3,0.1-0.4,0.1c-0.1,0-0.2,0.1-0.3,0.1c0,0,0,0,0,0c-0.1,0-0.3,0.1-0.4,0.1c0,0,0,0,0,0c-0.1,0-0.2,0-0.3,0.1
			c0,0,0,0,0,0c-0.1,0-0.3,0-0.4,0.1c0,0,0,0,0,0c-0.1,0-0.2,0-0.3,0c0,0,0,0,0,0c-0.1,0-0.3,0-0.4,0.1c0,0,0,0,0,0
			c-0.1,0-0.2,0-0.2,0c0,0,0,0,0,0c-0.2,0-0.3,0-0.5,0c-0.1,0-0.2,0-0.2,0c3.9-0.1,7.6-1.3,10.8-3.2c1.9-3.2,3.1-6.8,3.2-10.8
			C208.6,42.4,208.4,43.5,208.1,44.5z"/>
		<path fill="#9C57A3" d="M208.6,39.8C208.5,38.4,208.6,39.7,208.6,39.8c0,0.3,0,1.3,0,1.5c0,0.1-0.1,1.1,0,0
			c-0.1,3.9-1.3,7.6-3.2,10.8c4.3-2.6,7.7-6.7,9.4-11.6c-1.7-4.8-5.1-8.9-9.4-11.6C207.3,32.1,208.5,35.8,208.6,39.8z"/>
		<path fill="#9C57A3" d="M205.4,29c4.3,2.6,7.7,6.7,9.4,11.6c0.8-2.3,1.3-4.8,1.3-7.4c0-4.2-1.2-8.2-3.2-11.6
			c-3.4-2.1-7.3-3.2-11.6-3.2c-2.6,0-5.1,0.5-7.4,1.3C198.7,21.3,202.7,24.7,205.4,29z"/>
		<path fill="#9C57A3" d="M193.8,19.6c2.3-0.8,4.8-1.3,7.4-1.3c4.2,0,8.2,1.2,11.6,3.2c-3.9-6.4-10.9-10.7-19-10.7
			c-8,0-15.1,4.3-19,10.7c3.4-2.1,7.3-3.2,11.6-3.2C189,18.3,191.5,18.8,193.8,19.6z"/>
		<path fill="#9C57A3" d="M174.9,21.5c3.7-6.1,10.3-10.3,18-10.6c-15.6,0.5-28.1,13-28.6,28.6C164.6,31.9,168.7,25.3,174.9,21.5z"/>
	</g>
</g>
</svg>
