<?xml version="1.0" encoding="utf-8"?>
<!-- Generator: Adobe Illustrator 18.0.0, SVG Export Plug-In . SVG Version: 6.00 Build 0)  -->
<!DOCTYPE svg PUBLIC "-//W3C//DTD SVG 1.1//EN" "http://www.w3.org/Graphics/SVG/1.1/DTD/svg11.dtd">
<svg version="1.1" id="Layer_1" xmlns="http://www.w3.org/2000/svg" xmlns:xlink="http://www.w3.org/1999/xlink" x="0px" y="0px"
	 viewBox="0 0 720.1 116.7" enable-background="new 0 0 720.1 116.7" xml:space="preserve">
<rect x="169.4" y="3.8" fill="none" stroke="#FFFFFF" stroke-width="2" stroke-miterlimit="10" width="129.3" height="47.3"/>
<rect x="336.2" y="3.8" fill="none" stroke="#FFFFFF" stroke-width="2" stroke-miterlimit="10" width="67.3" height="47.3"/>
<rect x="169.4" y="3.8" fill="none" stroke="#FFFFFF" stroke-width="2" stroke-miterlimit="10" width="129.3" height="47.3"/>
<rect x="439.8" y="3.8" fill="none" stroke="#FFFFFF" stroke-width="2" stroke-miterlimit="10" width="67.3" height="47.3"/>
<rect x="545.8" y="3.8" fill="none" stroke="#FFFFFF" stroke-width="2" stroke-miterlimit="10" width="67.3" height="47.3"/>
<rect x="649.5" y="3.8" fill="none" stroke="#FFFFFF" stroke-width="2" stroke-miterlimit="10" width="67.3" height="47.3"/>
<line fill="none" stroke="#FFFFFF" stroke-width="2" stroke-miterlimit="10" x1="298.7" y1="27.4" x2="336.4" y2="27.4"/>
<line fill="none" stroke="#FFFFFF" stroke-width="2" stroke-miterlimit="10" x1="403.3" y1="27.4" x2="441" y2="27.4"/>
<line fill="none" stroke="#FFFFFF" stroke-width="2" stroke-miterlimit="10" x1="508.1" y1="27.4" x2="545.8" y2="27.4"/>
<line fill="none" stroke="#FFFFFF" stroke-width="2" stroke-miterlimit="10" x1="612.7" y1="27.4" x2="650.4" y2="27.4"/>
<line fill="none" stroke="#FFFFFF" stroke-width="2" stroke-miterlimit="10" x1="346.1" y1="31.4" x2="360.4" y2="31.4"/>
<line fill="none" stroke="#FFFFFF" stroke-width="2" stroke-miterlimit="10" x1="359.9" y1="31.4" x2="380.1" y2="20.4"/>
<line fill="none" stroke="#FFFFFF" stroke-width="2" stroke-miterlimit="10" x1="380.1" y1="31.4" x2="393.8" y2="31.4"/>
<line fill="none" stroke="#FFFFFF" stroke-width="2" stroke-miterlimit="10" x1="473.5" y1="12.4" x2="473.5" y2="34"/>
<line fill="none" stroke="#FFFFFF" stroke-width="2" stroke-miterlimit="10" x1="481.4" y1="15.6" x2="476.7" y2="15.6"/>
<line fill="none" stroke="#FFFFFF" stroke-width="2" stroke-miterlimit="10" x1="481.4" y1="20.6" x2="476.7" y2="20.6"/>
<line fill="none" stroke="#FFFFFF" stroke-width="2" stroke-miterlimit="10" x1="481.4" y1="25.4" x2="476.7" y2="25.4"/>
<circle fill="none" stroke="#FFFFFF" stroke-width="2" stroke-miterlimit="10" cx="473.5" cy="38.4" r="4"/>
<g>
	<polygon fill="#FFFFFF" points="569.2,13.8 557.2,27.6 556.7,26.5 569.4,26.8 570.2,26.8 569.7,27.4 556.7,42.4 569.1,26.9 
		569.4,27.6 556.7,27.8 555.4,27.8 556.2,26.8 567.7,12.5 	"/>
</g>
<line fill="none" stroke="#FFFFFF" stroke-width="2" stroke-miterlimit="10" x1="674.8" y1="15.9" x2="691.5" y2="15.9"/>
<line fill="none" stroke="#FFFFFF" stroke-width="2" stroke-miterlimit="10" x1="674" y1="19.2" x2="664.3" y2="27"/>
<line fill="none" stroke="#FFFFFF" stroke-width="2" stroke-miterlimit="10" x1="678.1" y1="21.6" x2="672.4" y2="33.9"/>
<line fill="none" stroke="#FFFFFF" stroke-width="2" stroke-miterlimit="10" x1="683.2" y1="22.4" x2="683.2" y2="36.1"/>
<line fill="none" stroke="#FFFFFF" stroke-width="2" stroke-miterlimit="10" x1="688.1" y1="21.6" x2="692.7" y2="33.3"/>
<line fill="none" stroke="#FFFFFF" stroke-width="2" stroke-miterlimit="10" x1="692.5" y1="19.2" x2="700.8" y2="26.4"/>
<g>
	<path fill="#FFFFFF" d="M581.6,32.4h-6v-0.8l3-3.4c0.6-0.6,0.9-1.1,1.1-1.5s0.3-0.7,0.3-1.1c0-0.5-0.1-0.9-0.4-1.2
		c-0.3-0.3-0.6-0.5-1.1-0.5c-0.7,0-1.1,0.2-1.5,0.5s-0.5,0.8-0.5,1.4h-1.2c0-0.8,0.3-1.5,0.8-2c0.5-0.5,1.3-0.8,2.3-0.8
		c0.8,0,1.5,0.2,2,0.7c0.5,0.5,0.7,1.1,0.7,1.9c0,0.5-0.1,1-0.4,1.5c-0.3,0.5-0.7,1-1.3,1.7l-2.5,2.7h4.5V32.4z"/>
	<path fill="#FFFFFF" d="M588.9,32.4h-6v-0.8l3-3.4c0.6-0.6,0.9-1.1,1.1-1.5s0.3-0.7,0.3-1.1c0-0.5-0.1-0.9-0.4-1.2
		c-0.3-0.3-0.6-0.5-1.1-0.5c-0.7,0-1.1,0.2-1.5,0.5s-0.5,0.8-0.5,1.4h-1.2c0-0.8,0.3-1.5,0.8-2c0.5-0.5,1.3-0.8,2.3-0.8
		c0.8,0,1.5,0.2,2,0.7c0.5,0.5,0.7,1.1,0.7,1.9c0,0.5-0.1,1-0.4,1.5c-0.3,0.5-0.7,1-1.3,1.7l-2.5,2.7h4.5V32.4z"/>
	<path fill="#FFFFFF" d="M596.1,28.9c0,1.2-0.3,2.1-0.8,2.7c-0.5,0.6-1.2,0.9-2.2,0.9c-0.9,0-1.6-0.3-2.2-0.9
		c-0.5-0.6-0.8-1.5-0.8-2.7v-2.2c0-1.2,0.3-2.1,0.8-2.7c0.5-0.6,1.2-0.9,2.2-0.9c0.9,0,1.6,0.3,2.2,0.9c0.5,0.6,0.8,1.5,0.8,2.7
		V28.9z M594.9,26.5c0-0.8-0.1-1.4-0.4-1.9c-0.3-0.4-0.7-0.6-1.3-0.6c-0.6,0-1,0.2-1.3,0.6s-0.4,1-0.4,1.9v2.7
		c0,0.8,0.1,1.4,0.4,1.9c0.3,0.4,0.7,0.6,1.3,0.6c0.6,0,1-0.2,1.3-0.6s0.4-1,0.4-1.9V26.5z"/>
	<path fill="#FFFFFF" d="M598,32.4v-9.2h3c1,0,1.7,0.2,2.3,0.6c0.5,0.4,0.8,1,0.8,1.9c0,0.4-0.1,0.8-0.4,1.1c-0.3,0.3-0.6,0.6-1,0.7
		v0c0.6,0.1,1,0.4,1.3,0.8c0.3,0.4,0.5,0.9,0.5,1.5c0,0.9-0.3,1.5-0.8,1.9c-0.5,0.4-1.3,0.7-2.2,0.7H598z M599.2,27.1h2.1
		c0.5,0,0.9-0.1,1.2-0.4c0.3-0.3,0.4-0.6,0.4-1.1c0-0.5-0.2-0.9-0.5-1.1c-0.3-0.2-0.8-0.4-1.4-0.4h-1.8V27.1z M599.2,28.1v3.4h2.2
		c0.6,0,1.1-0.1,1.4-0.4c0.3-0.3,0.5-0.7,0.5-1.2c0-0.6-0.1-1-0.4-1.3c-0.3-0.3-0.7-0.5-1.3-0.5H599.2z"/>
</g>
<g>
	<path fill="#FFFFFF" d="M207,23.2h1.2v6.7c0,0.8-0.3,1.5-0.8,2c-0.5,0.5-1.2,0.7-2,0.7c-0.9,0-1.6-0.2-2.1-0.7
		c-0.5-0.4-0.8-1.1-0.8-2h1.2c0,0.6,0.1,1,0.4,1.3s0.7,0.4,1.3,0.4c0.5,0,0.9-0.2,1.2-0.5s0.5-0.7,0.5-1.3V23.2z"/>
	<path fill="#FFFFFF" d="M214.4,32.4c0-0.2-0.1-0.4-0.1-0.5s0-0.3,0-0.4c-0.2,0.3-0.6,0.6-0.9,0.8s-0.8,0.3-1.2,0.3
		c-0.7,0-1.3-0.2-1.6-0.5c-0.4-0.4-0.5-0.9-0.5-1.5c0-0.7,0.3-1.2,0.8-1.5s1.3-0.5,2.2-0.5h1.3v-0.7c0-0.4-0.1-0.7-0.4-1
		c-0.3-0.2-0.6-0.4-1.1-0.4c-0.4,0-0.8,0.1-1.1,0.3c-0.3,0.2-0.4,0.5-0.4,0.8h-1.2c0-0.5,0.3-1,0.8-1.4c0.5-0.4,1.2-0.6,2-0.6
		c0.8,0,1.4,0.2,1.9,0.6c0.5,0.4,0.7,1,0.7,1.7V31c0,0.2,0,0.5,0,0.7c0,0.2,0.1,0.5,0.1,0.7H214.4z M212.4,31.5
		c0.4,0,0.8-0.1,1.2-0.3c0.3-0.2,0.6-0.5,0.8-0.7v-1.3h-1.4c-0.5,0-1,0.1-1.3,0.4s-0.5,0.6-0.5,0.9c0,0.3,0.1,0.6,0.3,0.7
		C211.7,31.5,212,31.5,212.4,31.5z"/>
	<path fill="#FFFFFF" d="M219.5,30.4l0.1,0.6h0l0.1-0.6l1.6-4.9h1.2l-2.5,6.9h-0.9l-2.6-6.9h1.2L219.5,30.4z"/>
	<path fill="#FFFFFF" d="M227.9,32.4c0-0.2-0.1-0.4-0.1-0.5s0-0.3,0-0.4c-0.2,0.3-0.6,0.6-0.9,0.8s-0.8,0.3-1.2,0.3
		c-0.7,0-1.3-0.2-1.6-0.5c-0.4-0.4-0.5-0.9-0.5-1.5c0-0.7,0.3-1.2,0.8-1.5s1.3-0.5,2.2-0.5h1.3v-0.7c0-0.4-0.1-0.7-0.4-1
		c-0.3-0.2-0.6-0.4-1.1-0.4c-0.4,0-0.8,0.1-1.1,0.3c-0.3,0.2-0.4,0.5-0.4,0.8h-1.2c0-0.5,0.3-1,0.8-1.4c0.5-0.4,1.2-0.6,2-0.6
		c0.8,0,1.4,0.2,1.9,0.6c0.5,0.4,0.7,1,0.7,1.7V31c0,0.2,0,0.5,0,0.7c0,0.2,0.1,0.5,0.1,0.7H227.9z M225.8,31.5
		c0.4,0,0.8-0.1,1.2-0.3c0.3-0.2,0.6-0.5,0.8-0.7v-1.3h-1.4c-0.5,0-1,0.1-1.3,0.4s-0.5,0.6-0.5,0.9c0,0.3,0.1,0.6,0.3,0.7
		C225.1,31.5,225.4,31.5,225.8,31.5z"/>
	<path fill="#FFFFFF" d="M236,30.1c0-0.4-0.2-0.8-0.5-1.1s-0.9-0.5-1.7-0.7c-1-0.2-1.8-0.6-2.3-1s-0.8-1-0.8-1.7
		c0-0.7,0.3-1.3,0.9-1.8c0.6-0.5,1.3-0.7,2.3-0.7c1,0,1.8,0.3,2.4,0.8s0.9,1.2,0.9,2H236c0-0.6-0.2-1-0.5-1.3s-0.9-0.5-1.6-0.5
		c-0.7,0-1.2,0.1-1.5,0.4s-0.5,0.7-0.5,1.1c0,0.4,0.2,0.8,0.5,1c0.4,0.3,1,0.5,1.8,0.7c1,0.3,1.7,0.6,2.2,1.1c0.5,0.5,0.8,1,0.8,1.7
		c0,0.8-0.3,1.4-0.9,1.8c-0.6,0.4-1.4,0.7-2.4,0.7c-0.9,0-1.8-0.2-2.5-0.7c-0.7-0.5-1.1-1.2-1.1-2h1.2c0,0.6,0.2,1.1,0.7,1.4
		c0.4,0.3,1,0.5,1.7,0.5c0.7,0,1.2-0.1,1.5-0.4C235.9,31,236,30.6,236,30.1z"/>
	<path fill="#FFFFFF" d="M241.5,31.6c0.4,0,0.8-0.1,1.1-0.4c0.3-0.3,0.5-0.6,0.5-1h1.1c0,0.6-0.3,1.2-0.8,1.6
		c-0.5,0.5-1.2,0.7-1.9,0.7c-1,0-1.8-0.3-2.3-1c-0.5-0.6-0.8-1.5-0.8-2.5v-0.3c0-1,0.3-1.8,0.8-2.5s1.3-1,2.3-1c0.8,0,1.5,0.2,2,0.7
		c0.5,0.5,0.8,1.1,0.8,1.8h-1.1c0-0.4-0.2-0.8-0.5-1.1c-0.3-0.3-0.7-0.4-1.2-0.4c-0.7,0-1.2,0.2-1.5,0.7c-0.3,0.5-0.4,1.1-0.4,1.8
		v0.3c0,0.7,0.1,1.3,0.4,1.8C240.3,31.4,240.8,31.6,241.5,31.6z"/>
	<path fill="#FFFFFF" d="M248.9,26.6l-0.7,0c-0.4,0-0.7,0.1-0.9,0.2s-0.4,0.4-0.5,0.7v4.9h-1.2v-6.9h1.1l0.1,1l0,0
		c0.2-0.4,0.4-0.6,0.7-0.8c0.3-0.2,0.6-0.3,1-0.3c0.1,0,0.2,0,0.3,0c0.1,0,0.2,0,0.2,0L248.9,26.6z"/>
	<path fill="#FFFFFF" d="M251.4,23.8h-1.2v-1.3h1.2V23.8z M251.4,32.4h-1.2v-6.9h1.2V32.4z"/>
	<path fill="#FFFFFF" d="M259.1,29.3c0,1-0.2,1.8-0.7,2.4c-0.5,0.6-1.1,0.9-2,0.9c-0.4,0-0.8-0.1-1.1-0.2s-0.6-0.4-0.8-0.6l0,0v3.4
		h-1.2v-9.5h1l0.1,0.9c0.2-0.3,0.5-0.6,0.8-0.7s0.7-0.3,1.2-0.3c0.9,0,1.5,0.3,2,1c0.5,0.7,0.7,1.6,0.7,2.7V29.3z M258,29.1
		c0-0.8-0.2-1.5-0.5-2s-0.8-0.7-1.4-0.7c-0.4,0-0.7,0.1-1,0.3c-0.3,0.2-0.5,0.4-0.6,0.7v3.3c0.2,0.3,0.4,0.5,0.6,0.7
		c0.3,0.2,0.6,0.2,1,0.2c0.6,0,1.1-0.2,1.4-0.6c0.3-0.4,0.5-1,0.5-1.7V29.1z"/>
	<path fill="#FFFFFF" d="M262.1,23.9v1.7h1.3v0.9h-1.3v4.2c0,0.3,0.1,0.6,0.2,0.7c0.1,0.1,0.3,0.2,0.5,0.2c0.1,0,0.2,0,0.3,0
		c0.1,0,0.2,0,0.3-0.1l0.2,0.8c-0.1,0.1-0.3,0.1-0.5,0.2c-0.2,0-0.4,0.1-0.6,0.1c-0.5,0-0.9-0.1-1.1-0.4c-0.3-0.3-0.4-0.8-0.4-1.5
		v-4.2h-1v-0.9h1v-1.7H262.1z"/>
</g>
<line fill="#FFFFFF" stroke="#FFFFFF" stroke-width="2" stroke-miterlimit="10" x1="131.7" y1="27.4" x2="169.4" y2="27.4"/>
<path fill="none" stroke="#A7A9AC" stroke-miterlimit="10" d="M30.9,51.1H11.2c-2.8,0-5-2.3-5-5V8.8c0-2.7,2.3-5,5-5h19.7
	c2.8,0,5,2.3,5,5v37.3C35.9,48.8,33.6,51.1,30.9,51.1z"/>
<circle fill="none" stroke="#A7A9AC" stroke-miterlimit="10" cx="21.2" cy="46.4" r="2.3"/>
<rect x="9.6" y="7.2" fill="none" stroke="#A7A9AC" stroke-miterlimit="10" width="23" height="34.5"/>
<g>
	<circle fill="#939598" stroke="#939598" stroke-miterlimit="10" cx="43.1" cy="27.4" r="2.3"/>
	<path fill="none" stroke="#939598" stroke-miterlimit="10" d="M54.8,12.5c7.6,7.6,9,20.8,0,29.8"/>
	<path fill="none" stroke="#939598" stroke-miterlimit="10" d="M50.7,16.6c5.5,5.5,6.5,15.1,0,21.7"/>
	<path fill="none" stroke="#939598" stroke-miterlimit="10" d="M46.9,20.5c3.5,3.5,4.2,9.7,0,13.9"/>
</g>
<path fill="none" stroke="#FFFFFF" stroke-width="2" stroke-miterlimit="10" d="M70.5,35.5c0.8-7.7,8.4-12.8,16.2-9.8
	C85,2.5,115.3-0.1,119.3,20.6c10.6-2.3,15.8,7.7,12,15C123.6,35.5,77.9,35.5,70.5,35.5z"/>
<line fill="none" stroke="#FFFFFF" stroke-width="2" stroke-miterlimit="10" x1="481.4" y1="30.3" x2="476.7" y2="30.3"/>
<g>
	<path fill="#FFFFFF" d="M275.6,91.7h-1.2v-10h-6v10h-1.2V80.6h8.4V91.7z"/>
	<path fill="#FFFFFF" d="M278.3,86c0-1.7,0.4-3,1.3-4c0.9-1,2.1-1.5,3.6-1.5c1.5,0,2.7,0.5,3.6,1.5c0.9,1,1.3,2.4,1.3,4v0.3
		c0,1.7-0.4,3-1.3,4c-0.9,1-2.1,1.5-3.6,1.5c-1.5,0-2.7-0.5-3.6-1.5c-0.9-1-1.3-2.4-1.3-4V86z M279.5,86.3c0,1.3,0.3,2.4,1,3.3
		s1.6,1.3,2.7,1.3c1.2,0,2.1-0.4,2.7-1.3c0.6-0.9,1-1.9,1-3.3V86c0-1.3-0.3-2.4-1-3.2c-0.6-0.9-1.6-1.3-2.7-1.3
		c-1.2,0-2.1,0.4-2.7,1.3c-0.6,0.9-1,1.9-1,3.2V86.3z"/>
	<path fill="#FFFFFF" d="M289.6,90.6c0.6-0.8,1.1-1.5,1.4-2.3s0.6-2,0.6-3.7l0.2-4h6.6v10.1h1.1v4.3h-1.2v-3.3H290v3.3h-1.2l0-4.3
		H289.6z M292.9,84.6c-0.1,1.5-0.3,2.7-0.6,3.7s-0.7,1.8-1.3,2.4h6.1v-8.9H293L292.9,84.6z"/>
	<path fill="#FFFFFF" d="M310.9,86.4c0,1.7-0.4,3-1.1,4s-1.8,1.5-3.1,1.5c-0.8,0-1.5-0.1-2-0.4c-0.6-0.3-1-0.7-1.4-1.2l0,0v5.7h-1.2
		V80.6h1l0.2,1.7l0,0c0.4-0.6,0.8-1.1,1.4-1.4c0.6-0.3,1.3-0.5,2.1-0.5c1.4,0,2.4,0.5,3.1,1.6c0.7,1,1.1,2.5,1.1,4.3V86.4z
		 M309.6,86.2c0-1.4-0.3-2.6-0.8-3.5c-0.5-0.9-1.4-1.3-2.5-1.3c-0.8,0-1.5,0.2-2,0.6c-0.5,0.4-0.9,0.9-1.2,1.5v5.3
		c0.3,0.6,0.7,1.1,1.2,1.4c0.5,0.3,1.2,0.5,2,0.5c1.1,0,1.9-0.4,2.5-1.2c0.5-0.8,0.8-1.9,0.8-3.2V86.2z"/>
	<path fill="#FFFFFF" d="M312.9,86c0-1.7,0.4-3,1.3-4c0.9-1,2.1-1.5,3.6-1.5c1.5,0,2.7,0.5,3.6,1.5c0.9,1,1.3,2.4,1.3,4v0.3
		c0,1.7-0.4,3-1.3,4c-0.9,1-2.1,1.5-3.6,1.5c-1.5,0-2.7-0.5-3.6-1.5c-0.9-1-1.3-2.4-1.3-4V86z M314.2,86.3c0,1.3,0.3,2.4,1,3.3
		c0.6,0.9,1.5,1.3,2.7,1.3c1.2,0,2.1-0.4,2.7-1.3c0.6-0.9,1-1.9,1-3.3V86c0-1.3-0.3-2.4-1-3.2c-0.6-0.9-1.6-1.3-2.7-1.3
		c-1.2,0-2.1,0.4-2.7,1.3c-0.6,0.9-1,1.9-1,3.2V86.3z"/>
	<path fill="#FFFFFF" d="M329.8,81.3c1.5,0,2.6,0.5,3.5,1.4c0.9,0.9,1.3,2.1,1.3,3.6v0.3c0,1.6-0.4,2.9-1.3,3.8
		c-0.9,1-2.1,1.5-3.6,1.5s-2.7-0.5-3.6-1.5s-1.3-2.2-1.3-3.8v-1.3c0-2.3,0.4-4.1,1.3-5.4c0.9-1.3,2.1-2.1,3.7-2.4
		c1-0.2,1.8-0.4,2.2-0.6c0.4-0.3,0.6-0.7,0.6-1.2h1.1c0,1-0.3,1.7-0.9,2.1c-0.6,0.4-1.5,0.7-2.7,0.8c-1,0.1-1.9,0.6-2.6,1.3
		c-0.7,0.7-1.2,1.8-1.4,3.1l0,0c0.5-0.5,1-1,1.7-1.3C328.2,81.5,329,81.3,329.8,81.3z M329.6,82.3c-1.2,0-2.1,0.4-2.7,1.1
		s-1,1.7-1,2.8v0.3c0,1.2,0.3,2.2,1,3c0.6,0.8,1.5,1.2,2.7,1.2c1.2,0,2.1-0.4,2.7-1.2c0.6-0.8,1-1.8,1-3v-0.3c0-1.1-0.3-2.1-1-2.8
		C331.7,82.7,330.8,82.3,329.6,82.3z"/>
	<path fill="#FFFFFF" d="M345.2,91.7H344v-5.1h-6v5.1h-1.2V80.6h1.2v5h6v-5h1.2V91.7z"/>
	<path fill="#FFFFFF" d="M347.8,86c0-1.7,0.4-3,1.3-4c0.9-1,2.1-1.5,3.6-1.5c1.5,0,2.7,0.5,3.6,1.5c0.9,1,1.3,2.4,1.3,4v0.3
		c0,1.7-0.4,3-1.3,4c-0.9,1-2.1,1.5-3.6,1.5c-1.5,0-2.7-0.5-3.6-1.5c-0.9-1-1.3-2.4-1.3-4V86z M349,86.3c0,1.3,0.3,2.4,1,3.3
		c0.6,0.9,1.5,1.3,2.7,1.3c1.2,0,2.1-0.4,2.7-1.3c0.6-0.9,1-1.9,1-3.3V86c0-1.3-0.3-2.4-1-3.2c-0.6-0.9-1.6-1.3-2.7-1.3
		c-1.2,0-2.1,0.4-2.7,1.3c-0.6,0.9-1,1.9-1,3.2V86.3z"/>
	<path fill="#FFFFFF" d="M364.3,90.8c0.8,0,1.5-0.2,2.1-0.7c0.6-0.5,0.9-1.1,0.9-1.9h1.2c0,1.1-0.5,1.9-1.3,2.6s-1.8,1-3,1
		c-1.5,0-2.7-0.5-3.5-1.5c-0.8-1-1.2-2.4-1.2-4v-0.4c0-1.6,0.4-3,1.2-4c0.8-1,2-1.5,3.5-1.5c1.2,0,2.2,0.4,3,1.1s1.2,1.7,1.2,2.9
		h-1.2c0-0.9-0.3-1.6-0.9-2.1c-0.6-0.5-1.3-0.8-2.2-0.8c-1.2,0-2.1,0.4-2.7,1.3c-0.6,0.8-0.8,1.9-0.8,3.2v0.4c0,1.3,0.3,2.4,0.8,3.3
		C362.2,90.4,363.1,90.8,364.3,90.8z"/>
	<path fill="#FFFFFF" d="M379,81.6h-4v10h-1.2v-10h-3.9v-1h9.2V81.6z"/>
	<path fill="#FFFFFF" d="M388.3,80.6h1.2v11.1h-1.2v-9.1l0,0l-6,9.1h-1.2V80.6h1.2v9.1l0,0L388.3,80.6z"/>
	<path fill="#FFFFFF" d="M402.1,90.8c0.8,0,1.5-0.2,2.1-0.7c0.6-0.5,0.9-1.1,0.9-1.9h1.2c0,1.1-0.5,1.9-1.3,2.6s-1.8,1-3,1
		c-1.5,0-2.7-0.5-3.5-1.5c-0.8-1-1.2-2.4-1.2-4v-0.4c0-1.6,0.4-3,1.2-4c0.8-1,2-1.5,3.5-1.5c1.2,0,2.2,0.4,3,1.1s1.2,1.7,1.2,2.9
		h-1.2c0-0.9-0.3-1.6-0.9-2.1c-0.6-0.5-1.3-0.8-2.2-0.8c-1.2,0-2.1,0.4-2.7,1.3c-0.6,0.8-0.8,1.9-0.8,3.2v0.4c0,1.3,0.3,2.4,0.8,3.3
		C399.9,90.4,400.8,90.8,402.1,90.8z"/>
	<path fill="#FFFFFF" d="M411.8,86.6h-1.7v5.1h-1.2V80.6h1.2v4.9h1.7l4.1-4.9h1.5l-4.6,5.4l5.1,5.7h-1.6L411.8,86.6z"/>
	<path fill="#FFFFFF" d="M418.8,86c0-1.7,0.4-3,1.3-4c0.9-1,2.1-1.5,3.6-1.5c1.5,0,2.7,0.5,3.6,1.5c0.9,1,1.3,2.4,1.3,4v0.3
		c0,1.7-0.4,3-1.3,4c-0.9,1-2.1,1.5-3.6,1.5c-1.5,0-2.7-0.5-3.6-1.5c-0.9-1-1.3-2.4-1.3-4V86z M420,86.3c0,1.3,0.3,2.4,1,3.3
		c0.6,0.9,1.5,1.3,2.7,1.3c1.2,0,2.1-0.4,2.7-1.3c0.6-0.9,1-1.9,1-3.3V86c0-1.3-0.3-2.4-1-3.2c-0.6-0.9-1.6-1.3-2.7-1.3
		c-1.2,0-2.1,0.4-2.7,1.3c-0.6,0.9-1,1.9-1,3.2V86.3z"/>
	<path fill="#FFFFFF" d="M440.1,86.4c0,1.7-0.4,3-1.1,4s-1.8,1.5-3.1,1.5c-0.8,0-1.5-0.1-2-0.4c-0.6-0.3-1-0.7-1.4-1.2l0,0v5.7h-1.2
		V80.6h1l0.2,1.7l0,0c0.4-0.6,0.8-1.1,1.4-1.4c0.6-0.3,1.3-0.5,2.1-0.5c1.4,0,2.4,0.5,3.1,1.6c0.7,1,1.1,2.5,1.1,4.3V86.4z
		 M438.9,86.2c0-1.4-0.3-2.6-0.8-3.5c-0.5-0.9-1.4-1.3-2.5-1.3c-0.8,0-1.5,0.2-2,0.6c-0.5,0.4-0.9,0.9-1.2,1.5v5.3
		c0.3,0.6,0.7,1.1,1.2,1.4c0.5,0.3,1.2,0.5,2,0.5c1.1,0,1.9-0.4,2.5-1.2c0.5-0.8,0.8-1.9,0.8-3.2V86.2z"/>
	<path fill="#FFFFFF" d="M442.2,86c0-1.7,0.4-3,1.3-4c0.9-1,2.1-1.5,3.6-1.5c1.5,0,2.7,0.5,3.6,1.5c0.9,1,1.3,2.4,1.3,4v0.3
		c0,1.7-0.4,3-1.3,4c-0.9,1-2.1,1.5-3.6,1.5c-1.5,0-2.7-0.5-3.6-1.5c-0.9-1-1.3-2.4-1.3-4V86z M443.4,86.3c0,1.3,0.3,2.4,1,3.3
		c0.6,0.9,1.5,1.3,2.7,1.3c1.2,0,2.1-0.4,2.7-1.3c0.6-0.9,1-1.9,1-3.3V86c0-1.3-0.3-2.4-1-3.2c-0.6-0.9-1.6-1.3-2.7-1.3
		c-1.2,0-2.1,0.4-2.7,1.3c-0.6,0.9-1,1.9-1,3.2V86.3z"/>
</g>
</svg>
